<svg width="32" height="32" viewBox="0 0 32 32" fill="none" xmlns="http://www.w3.org/2000/svg">
<path d="M28.7115 14.3497C27.4793 13.8045 25.7188 14.5353 24.4732 16.302C23.6549 17.462 23.414 19.1136 22.3397 19.2858C21.9293 19.3519 21.7062 19.102 21.5902 18.7424C21.4679 18.1357 21.4947 17.1979 21.7214 15.8862L24.1662 4.89774C24.3607 4.0581 23.9048 3.24523 22.8073 2.98022C21.7097 2.71521 20.8844 3.25326 20.689 4.0929L18.5064 14.0562C18.0666 16.2565 17.251 15.8568 17.4482 13.3646V13.3637L18.0737 1.68195C18.1245 0.778955 17.4304 0.0410357 16.4042 0.00177517C15.3781 -0.0374854 14.6384 0.578191 14.5857 1.48029L13.9897 13.4449C13.8621 15.8604 12.9975 14.9502 12.8101 13.2005L11.4235 3.52095C11.2816 2.60814 10.4259 1.97729 9.39979 2.14147C8.37366 2.30655 7.75352 3.15511 7.8954 4.06792L9.22936 12.914C9.75849 16.2913 9.06697 17.2264 7.92841 13.5591L6.50611 8.18313C6.27412 7.32029 5.42377 6.78492 4.3557 7.08473C3.28764 7.38454 2.82722 8.24381 3.05832 9.10665L4.4485 14.1597C5.02938 17.7975 5.02938 19.2332 5.02938 21.7378C5.02938 24.2425 6.18132 32 14.9926 32C23.8039 32 25.6162 23.0495 25.7 22.4829C25.7 22.4829 25.8098 21.1623 26.7315 19.9265C28.0423 18.1696 28.9622 17.1104 29.5199 16.4769C29.8028 16.1566 30.0776 14.9538 28.7115 14.3497Z" fill="#FFCB4C"/>
<path d="M22.0514 19.2769C21.7838 19.168 21.5571 18.8879 21.5303 18.2784C19.8421 18.5095 17.5588 18.9825 15.8019 20.701C13.5212 22.9308 13.1322 25.3409 13.1509 26.9532C13.1661 28.2533 13.8754 28.869 14.0833 26.9425C14.3448 24.5093 16.1195 19.6767 22.0514 19.2769Z" fill="#C7AA41"/>
</svg>
