<svg width="33" height="32" viewBox="0 0 33 32" fill="none" xmlns="http://www.w3.org/2000/svg">
<path d="M16.5 32C25.3366 32 32.5 24.8366 32.5 16C32.5 7.16344 25.3366 0 16.5 0C7.66344 0 0.5 7.16344 0.5 16C0.5 24.8366 7.66344 32 16.5 32Z" fill="#FFCC4D"/>
<path d="M16.4999 18.6667C13.2795 18.6667 11.1426 18.2916 8.49995 17.7778C7.89639 17.6614 6.72217 17.7778 6.72217 19.5556C6.72217 23.1111 10.8066 27.5556 16.4999 27.5556C22.1924 27.5556 26.2777 23.1111 26.2777 19.5556C26.2777 17.7778 25.1035 17.6605 24.4999 17.7778C21.8573 18.2916 19.7204 18.6667 16.4999 18.6667Z" fill="#664500"/>
<path d="M8.5 19.5555C8.5 19.5555 11.1667 20.4444 16.5 20.4444C21.8333 20.4444 24.5 19.5555 24.5 19.5555C24.5 19.5555 22.7222 23.1111 16.5 23.1111C10.2778 23.1111 8.5 19.5555 8.5 19.5555Z" fill="white"/>
<path d="M11.1667 15.1111C12.394 15.1111 13.3889 13.7182 13.3889 12C13.3889 10.2818 12.394 8.88892 11.1667 8.88892C9.93938 8.88892 8.94446 10.2818 8.94446 12C8.94446 13.7182 9.93938 15.1111 11.1667 15.1111Z" fill="#664500"/>
<path d="M21.8333 15.1111C23.0606 15.1111 24.0555 13.7182 24.0555 12C24.0555 10.2818 23.0606 8.88892 21.8333 8.88892C20.606 8.88892 19.6111 10.2818 19.6111 12C19.6111 13.7182 20.606 15.1111 21.8333 15.1111Z" fill="#664500"/>
</svg>
