<svg width="32" height="32" viewBox="0 0 32 32" fill="none" xmlns="http://www.w3.org/2000/svg">
<path d="M32 16C32 24.8364 24.8364 32 16 32C7.16444 32 0 24.8364 0 16C0 7.16444 7.16444 0 16 0C24.8364 0 32 7.16444 32 16Z" fill="#FFCB4C"/>
<path d="M10.8231 16.3698C12.1226 16.3698 13.176 14.8949 13.176 13.0755C13.176 11.2562 12.1226 9.78131 10.8231 9.78131C9.52364 9.78131 8.47021 11.2562 8.47021 13.0755C8.47021 14.8949 9.52364 16.3698 10.8231 16.3698Z" fill="#65471B"/>
<path d="M22.1173 18.8231C25.4958 18.8231 28.2347 16.0843 28.2347 12.7058C28.2347 9.32726 25.4958 6.58844 22.1173 6.58844C18.7388 6.58844 16 9.32726 16 12.7058C16 16.0843 18.7388 18.8231 22.1173 18.8231Z" fill="#F4F7F9"/>
<path d="M13.1778 8.84089C12.8916 8.84089 12.609 8.71111 12.4241 8.46489C11.5432 7.29067 10.6214 6.66133 9.68362 6.59467C8.44806 6.51022 7.44095 7.43644 7.25339 7.624C6.88539 7.992 6.28984 7.992 5.92273 7.624C5.55473 7.256 5.55473 6.66044 5.92273 6.29333C6.32895 5.88711 7.81517 4.57244 9.81695 4.71733C11.3236 4.824 12.7067 5.70489 13.9298 7.33511C14.2418 7.75111 14.1574 8.34133 13.7423 8.65244C13.5716 8.77956 13.3734 8.84089 13.1778 8.84089Z" fill="#65471B"/>
<path d="M29.1769 32C28.6569 32 28.2356 31.5787 28.2356 31.0587V13.1769C28.2356 12.6569 28.6569 12.2356 29.1769 12.2356C29.6969 12.2356 30.1183 12.6569 30.1183 13.1769V31.0596C30.1174 31.5787 29.6969 32 29.1769 32Z" fill="#292F33"/>
<path d="M29.1769 11.2942C29.1289 11.2942 29.0836 11.3049 29.0365 11.3084C28.3858 8.08354 25.5316 5.64709 22.1174 5.64709C18.2249 5.64709 15.0587 8.81332 15.0587 12.7058C15.0587 16.5982 18.2249 19.7644 22.1174 19.7644C25.2 19.7644 27.8205 17.7751 28.7805 15.0151C28.9085 15.0427 29.0401 15.0587 29.1761 15.0587C30.2161 15.0587 31.0587 14.216 31.0587 13.176C31.0587 12.1369 30.2161 11.2942 29.1769 11.2942ZM22.1174 17.8826C19.2632 17.8826 16.9414 15.5609 16.9414 12.7058C16.9414 9.85065 19.264 7.52887 22.1174 7.52887C24.9716 7.52887 27.2943 9.85065 27.2943 12.7058C27.2943 15.5609 24.9716 17.8826 22.1174 17.8826Z" fill="#67757F"/>
<path d="M18.8222 25.4115C18.6809 25.4115 18.5369 25.3795 18.4018 25.312C16.7849 24.5031 15.2133 24.5031 13.5965 25.312C13.1307 25.544 12.5653 25.3564 12.3333 24.8906C12.1005 24.4258 12.2889 23.8604 12.7547 23.6275C14.9067 22.552 17.0898 22.552 19.2436 23.6275C19.7085 23.8604 19.8969 24.4258 19.6649 24.8906C19.5005 25.2213 19.168 25.4115 18.8222 25.4115Z" fill="#65471B"/>
<path d="M24.9324 8.36534C24.1218 7.83823 23.1564 7.52979 22.1173 7.52979C19.2587 7.52979 16.9404 9.84712 16.9404 12.7067C16.9404 13.7458 17.2498 14.7111 17.776 15.5218L24.9324 8.36534ZM19.9084 17.3822C20.5795 17.6996 21.3262 17.8827 22.1173 17.8827C24.976 17.8827 27.2942 15.5653 27.2942 12.7058C27.2942 11.9147 27.1111 11.1671 26.7938 10.4969L19.9084 17.3822Z" fill="#BDDDF4"/>
</svg>
