<svg width="32" height="32" viewBox="0 0 32 32" fill="none" xmlns="http://www.w3.org/2000/svg">
<path d="M32 16C32 24.8364 24.8364 32 16 32C7.16444 32 0 24.8364 0 16C0 7.16444 7.16444 0 16 0C24.8364 0 32 7.16444 32 16Z" fill="#FFCC4D"/>
<path d="M10.2222 18.2222C11.4495 18.2222 12.4444 16.8293 12.4444 15.1111C12.4444 13.3929 11.4495 12 10.2222 12C8.99492 12 8 13.3929 8 15.1111C8 16.8293 8.99492 18.2222 10.2222 18.2222Z" fill="#664500"/>
<path d="M21.7778 18.2222C23.0051 18.2222 24 16.8293 24 15.1111C24 13.3929 23.0051 12 21.7778 12C20.5505 12 19.5555 13.3929 19.5555 15.1111C19.5555 16.8293 20.5505 18.2222 21.7778 18.2222Z" fill="#664500"/>
<path d="M5.33241 12C5.14753 12 4.95997 11.9422 4.79997 11.8222C4.40708 11.528 4.32797 10.9707 4.62219 10.5778C7.52175 6.71113 11.392 6.66669 11.5555 6.66669C12.0462 6.66669 12.4444 7.06491 12.4444 7.55558C12.4444 8.04535 12.0489 8.44269 11.5591 8.44446C11.4213 8.44624 8.38753 8.52091 6.04441 11.6445C5.87019 11.8774 5.60264 12 5.33241 12ZM26.6675 12C26.3964 12 26.1306 11.8774 25.9555 11.6445C23.608 8.51469 20.568 8.44535 20.4391 8.44446C19.9502 8.43913 19.5555 8.03913 19.5582 7.55113C19.5609 7.06135 19.9555 6.66669 20.4444 6.66669C20.608 6.66669 24.4773 6.71113 27.3777 10.5778C27.6729 10.9707 27.5929 11.528 27.2 11.8222C27.04 11.9422 26.8533 12 26.6675 12ZM20.8755 25.2258C20.8657 25.1867 19.8577 21.3334 16 21.3334C12.1422 21.3334 11.1342 25.1867 11.1244 25.2258C11.0773 25.4151 11.1635 25.6089 11.3306 25.7094C11.4977 25.8089 11.7155 25.7858 11.8604 25.656C11.8684 25.6489 12.7609 24.8889 16 24.8889C19.1911 24.8889 20.104 25.6267 20.1386 25.656C20.2231 25.736 20.3333 25.7778 20.4444 25.7778C20.5191 25.7778 20.5946 25.7591 20.6631 25.7209C20.8373 25.6214 20.9244 25.4196 20.8755 25.2258Z" fill="#664500"/>
<path d="M14.2223 27.5555C14.2223 30.0107 12.2329 32 9.77782 32C7.32271 32 5.33337 30.0107 5.33337 27.5555C5.33337 25.1004 8.88893 18.6667 9.77782 18.6667C10.6667 18.6667 14.2223 25.1004 14.2223 27.5555Z" fill="#5DADEC"/>
</svg>
